<svg width="149" height="32" viewBox="0 0 149 32" fill="none" xmlns="http://www.w3.org/2000/svg">
<path d="M145.585 26.2667H146.23V28.862L148.411 26.2667H148.994V29.83H148.35V27.2348L146.176 29.83H145.585V26.2667ZM143.703 29.205C143.837 29.1199 143.904 28.9877 143.904 28.8082C143.904 28.6245 143.843 28.4879 143.72 28.398C143.597 28.3084 143.403 28.2634 143.139 28.2634H142.066V29.3326H143.099C143.368 29.3326 143.569 29.2902 143.703 29.205ZM142.066 27.7997H143.032C143.278 27.7997 143.465 27.755 143.592 27.6652C143.72 27.5755 143.784 27.4456 143.784 27.2752C143.784 26.9345 143.533 26.7642 143.032 26.7642H142.066V27.7997ZM144.549 28.8487C144.549 29.1623 144.431 29.4044 144.196 29.5748C143.962 29.745 143.611 29.83 143.146 29.83H141.435V26.2667H143.086C143.506 26.2667 143.835 26.3463 144.072 26.5051C144.309 26.6645 144.428 26.8897 144.428 27.1811C144.428 27.3694 144.378 27.5318 144.277 27.6685C144.176 27.8054 144.036 27.9095 143.858 27.9813C144.318 28.0977 144.549 28.3869 144.549 28.8487ZM139.218 29.1476C139.399 29.0424 139.541 28.8944 139.644 28.7039C139.747 28.5135 139.798 28.2949 139.798 28.0485C139.798 27.8019 139.747 27.5834 139.644 27.3929C139.541 27.2025 139.399 27.0558 139.218 26.9523C139.037 26.8495 138.832 26.7978 138.604 26.7978C138.376 26.7978 138.171 26.8495 137.99 26.9523C137.809 27.0558 137.665 27.2025 137.56 27.3929C137.455 27.5834 137.403 27.8019 137.403 28.0485C137.403 28.2949 137.455 28.5135 137.56 28.7039C137.665 28.8944 137.809 29.0424 137.99 29.1476C138.171 29.253 138.376 29.3057 138.604 29.3057C138.832 29.3057 139.037 29.253 139.218 29.1476ZM137.651 29.6353C137.369 29.4784 137.149 29.262 136.99 28.9864C136.831 28.7106 136.752 28.398 136.752 28.0485C136.752 27.6988 136.831 27.3862 136.99 27.1104C137.149 26.8348 137.369 26.6196 137.651 26.4649C137.933 26.3104 138.25 26.2331 138.604 26.2331C138.957 26.2331 139.274 26.3104 139.553 26.4649C139.833 26.6196 140.052 26.8348 140.211 27.1104C140.37 27.3862 140.449 27.6988 140.449 28.0485C140.449 28.398 140.37 28.7106 140.211 28.9864C140.052 29.262 139.833 29.4784 139.553 29.6353C139.274 29.7922 138.957 29.8706 138.604 29.8706C138.25 29.8706 137.933 29.7922 137.651 29.6353ZM134.803 29.1476C134.984 29.0424 135.127 28.8944 135.233 28.7039C135.338 28.5135 135.39 28.2949 135.39 28.0485C135.39 27.8019 135.338 27.5834 135.233 27.3929C135.127 27.2025 134.984 27.0558 134.803 26.9523C134.622 26.8495 134.417 26.7978 134.189 26.7978C133.965 26.7978 133.763 26.8505 133.582 26.9559C133.4 27.0612 133.257 27.208 133.152 27.3963C133.047 27.5843 132.994 27.8019 132.994 28.0485C132.994 28.2949 133.046 28.5135 133.149 28.7039C133.252 28.8944 133.395 29.0424 133.578 29.1476C133.762 29.253 133.965 29.3057 134.189 29.3057C134.417 29.3057 134.622 29.253 134.803 29.1476ZM135.169 26.4615C135.441 26.6141 135.655 26.827 135.81 27.1003C135.964 27.3738 136.041 27.6898 136.041 28.0485C136.041 28.407 135.964 28.7242 135.81 28.9998C135.655 29.2755 135.441 29.4896 135.169 29.642C134.896 29.7942 134.587 29.8706 134.243 29.8706C133.987 29.8706 133.754 29.8213 133.541 29.7226C133.329 29.6241 133.149 29.4806 133.001 29.2923V31.1345H132.357V26.2667H132.974V26.8314C133.117 26.6343 133.299 26.4852 133.518 26.3843C133.737 26.2835 133.978 26.2331 134.243 26.2331C134.587 26.2331 134.896 26.3093 135.169 26.4615ZM129.655 28.3241H128.917V29.83H128.272V26.2667H128.917V27.7728H129.668L130.822 26.2667H131.514L130.165 27.9813L131.607 29.83H130.849L129.655 28.3241ZM124.347 29.205C124.481 29.1199 124.548 28.9877 124.548 28.8082C124.548 28.6245 124.487 28.4879 124.364 28.398C124.241 28.3084 124.047 28.2634 123.783 28.2634H122.709V29.3326H123.743C124.011 29.3326 124.212 29.2902 124.347 29.205ZM122.709 27.7997H123.676C123.922 27.7997 124.109 27.755 124.236 27.6652C124.364 27.5755 124.427 27.4456 124.427 27.2752C124.427 26.9345 124.177 26.7642 123.676 26.7642H122.709V27.7997ZM125.192 28.8487C125.192 29.1623 125.075 29.4044 124.84 29.5748C124.605 29.745 124.255 29.83 123.79 29.83H122.078V26.2667H123.729C124.15 26.2667 124.479 26.3463 124.716 26.5051C124.953 26.6645 125.072 26.8897 125.072 27.1811C125.072 27.3694 125.021 27.5318 124.921 27.6685C124.82 27.8054 124.68 27.9095 124.501 27.9813C124.962 28.0977 125.192 28.3869 125.192 28.8487ZM119.861 29.1476C120.043 29.0424 120.184 28.8944 120.288 28.7039C120.39 28.5135 120.442 28.2949 120.442 28.0485C120.442 27.8019 120.39 27.5834 120.288 27.3929C120.184 27.2025 120.043 27.0558 119.861 26.9523C119.68 26.8495 119.476 26.7978 119.248 26.7978C119.019 26.7978 118.814 26.8495 118.633 26.9523C118.452 27.0558 118.309 27.2025 118.204 27.3929C118.099 27.5834 118.046 27.8019 118.046 28.0485C118.046 28.2949 118.099 28.5135 118.204 28.7039C118.309 28.8944 118.452 29.0424 118.633 29.1476C118.814 29.253 119.019 29.3057 119.248 29.3057C119.476 29.3057 119.68 29.253 119.861 29.1476ZM118.294 29.6353C118.013 29.4784 117.792 29.262 117.634 28.9864C117.475 28.7106 117.395 28.398 117.395 28.0485C117.395 27.6988 117.475 27.3862 117.634 27.1104C117.792 26.8348 118.013 26.6196 118.294 26.4649C118.576 26.3104 118.894 26.2331 119.248 26.2331C119.601 26.2331 119.917 26.3104 120.197 26.4649C120.477 26.6196 120.696 26.8348 120.855 27.1104C121.013 27.3862 121.093 27.6988 121.093 28.0485C121.093 28.398 121.013 28.7106 120.855 28.9864C120.696 29.262 120.477 29.4784 120.197 29.6353C119.917 29.7922 119.601 29.8706 119.248 29.8706C118.894 29.8706 118.576 29.7922 118.294 29.6353ZM115.447 29.1476C115.628 29.0424 115.771 28.8944 115.876 28.7039C115.981 28.5135 116.034 28.2949 116.034 28.0485C116.034 27.8019 115.981 27.5834 115.876 27.3929C115.771 27.2025 115.628 27.0558 115.447 26.9523C115.266 26.8495 115.061 26.7978 114.833 26.7978C114.609 26.7978 114.407 26.8505 114.225 26.9559C114.044 27.0612 113.901 27.208 113.796 27.3963C113.691 27.5843 113.638 27.8019 113.638 28.0485C113.638 28.2949 113.69 28.5135 113.793 28.7039C113.895 28.8944 114.039 29.0424 114.222 29.1476C114.405 29.253 114.609 29.3057 114.833 29.3057C115.061 29.3057 115.266 29.253 115.447 29.1476ZM115.812 26.4615C116.085 26.6141 116.299 26.827 116.453 27.1003C116.608 27.3738 116.685 27.6898 116.685 28.0485C116.685 28.407 116.608 28.7242 116.453 28.9998C116.299 29.2755 116.085 29.4896 115.812 29.642C115.54 29.7942 115.231 29.8706 114.886 29.8706C114.631 29.8706 114.398 29.8213 114.185 29.7226C113.973 29.6241 113.793 29.4806 113.645 29.2923V31.1345H113.001V26.2667H113.618V26.8314C113.761 26.6343 113.943 26.4852 114.162 26.3843C114.381 26.2835 114.622 26.2331 114.886 26.2331C115.231 26.2331 115.54 26.3093 115.812 26.4615ZM110.796 29.1476C110.977 29.0424 111.119 28.8944 111.222 28.7039C111.325 28.5135 111.376 28.2949 111.376 28.0485C111.376 27.8019 111.325 27.5834 111.222 27.3929C111.119 27.2025 110.977 27.0558 110.796 26.9523C110.615 26.8495 110.41 26.7978 110.182 26.7978C109.953 26.7978 109.749 26.8495 109.568 26.9523C109.386 27.0558 109.243 27.2025 109.138 27.3929C109.033 27.5834 108.981 27.8019 108.981 28.0485C108.981 28.2949 109.033 28.5135 109.138 28.7039C109.243 28.8944 109.386 29.0424 109.568 29.1476C109.749 29.253 109.953 29.3057 110.182 29.3057C110.41 29.3057 110.615 29.253 110.796 29.1476ZM109.229 29.6353C108.947 29.4784 108.726 29.262 108.568 28.9864C108.409 28.7106 108.329 28.398 108.329 28.0485C108.329 27.6988 108.409 27.3862 108.568 27.1104C108.726 26.8348 108.947 26.6196 109.229 26.4649C109.511 26.3104 109.828 26.2331 110.182 26.2331C110.535 26.2331 110.852 26.3104 111.131 26.4649C111.411 26.6196 111.63 26.8348 111.789 27.1104C111.948 27.3862 112.027 27.6988 112.027 28.0485C112.027 28.398 111.948 28.7106 111.789 28.9864C111.63 29.262 111.411 29.4784 111.131 29.6353C110.852 29.7922 110.535 29.8706 110.182 29.8706C109.828 29.8706 109.511 29.7922 109.229 29.6353ZM104.031 26.2667H104.676V27.7796H106.702V26.2667H107.346V29.83H106.702V28.3376H104.676V29.83H104.031V26.2667ZM101.814 29.1476C101.995 29.0424 102.137 28.8944 102.24 28.7039C102.343 28.5135 102.395 28.2949 102.395 28.0485C102.395 27.8019 102.343 27.5834 102.24 27.3929C102.137 27.2025 101.995 27.0558 101.814 26.9523C101.633 26.8495 101.428 26.7978 101.2 26.7978C100.972 26.7978 100.767 26.8495 100.586 26.9523C100.405 27.0558 100.262 27.2025 100.157 27.3929C100.052 27.5834 99.9992 27.8019 99.9992 28.0485C99.9992 28.2949 100.052 28.5135 100.157 28.7039C100.262 28.8944 100.405 29.0424 100.586 29.1476C100.767 29.253 100.972 29.3057 101.2 29.3057C101.428 29.3057 101.633 29.253 101.814 29.1476ZM100.247 29.6353C99.9657 29.4784 99.7451 29.262 99.5863 28.9864C99.4275 28.7106 99.3481 28.398 99.3481 28.0485C99.3481 27.6988 99.4275 27.3862 99.5863 27.1104C99.7451 26.8348 99.9657 26.6196 100.247 26.4649C100.529 26.3104 100.847 26.2331 101.2 26.2331C101.554 26.2331 101.87 26.3104 102.15 26.4649C102.429 26.6196 102.648 26.8348 102.807 27.1104C102.966 27.3862 103.046 27.6988 103.046 28.0485C103.046 28.398 102.966 28.7106 102.807 28.9864C102.648 29.262 102.429 29.4784 102.15 29.6353C101.87 29.7922 101.554 29.8706 101.2 29.8706C100.847 29.8706 100.529 29.7922 100.247 29.6353ZM95.9469 28.6302C95.8908 28.9236 95.7891 29.1354 95.6414 29.2654H97.6345V26.8314H96.091L96.0575 27.5172C96.0395 27.9656 96.0028 28.3365 95.9469 28.6302ZM98.8224 29.2654V30.6572H98.2184V29.83H95.2455V30.6572H94.6348V29.2654H94.8229C95.0511 29.252 95.2076 29.0905 95.2926 28.7814C95.3775 28.4721 95.4357 28.0351 95.4669 27.4702L95.5208 26.2667H98.2787V29.2654H98.8224ZM88.4746 26.2667H89.1188V28.862L91.2998 26.2667H91.8835V29.83H91.2393V27.2348L89.0652 29.83H88.4746V26.2667ZM87.7353 26.8314H86.4334V29.83H85.7891V26.8314H84.4872V26.2667H87.7353V26.8314ZM80.3457 26.2667H80.9899V28.862L83.1711 26.2667H83.7548V29.83H83.1104V27.2348L80.9365 29.83H80.3457V26.2667ZM75.7891 26.2667H76.4333V27.7796H78.4599V26.2667H79.1041V29.83H78.4599V28.3376H76.4333V29.83H75.7891V26.2667ZM73.5949 29.1512C73.7715 29.0481 73.9113 28.9014 74.0141 28.7106C74.1172 28.5202 74.1688 28.2994 74.1688 28.0485C74.1688 27.8019 74.1172 27.5834 74.0141 27.3929C73.9113 27.2025 73.7715 27.0558 73.5949 26.9523C73.4183 26.8495 73.2201 26.7978 73.0012 26.7978C72.7818 26.7978 72.5826 26.8495 72.4039 26.9523C72.2247 27.0558 72.085 27.2025 71.9844 27.3929C71.8839 27.5834 71.8334 27.8019 71.8334 28.0485C71.8334 28.2994 71.8839 28.5202 71.9844 28.7106C72.085 28.9014 72.2247 29.0481 72.4039 29.1512C72.5826 29.2542 72.7818 29.3057 73.0012 29.3057C73.2201 29.3057 73.4183 29.2542 73.5949 29.1512ZM73.927 26.4649C74.2 26.6196 74.4147 26.8348 74.5714 27.1104C74.7279 27.3862 74.8063 27.6988 74.8063 28.0485C74.8063 28.398 74.7279 28.7106 74.5714 28.9864C74.4147 29.262 74.2 29.4784 73.927 29.6353C73.6542 29.7922 73.3454 29.8706 73.0012 29.8706C72.6878 29.8706 72.4039 29.8055 72.1487 29.6756C71.8937 29.5456 71.6846 29.363 71.5214 29.1277C71.358 28.8924 71.2562 28.6245 71.216 28.3241H70.498V29.83H69.8537V26.2667H70.498V27.7256H71.2227C71.2675 27.4298 71.3714 27.1689 71.5348 26.9424C71.698 26.7159 71.9061 26.5413 72.159 26.4178C72.4116 26.2948 72.6924 26.2331 73.0012 26.2331C73.3454 26.2331 73.6542 26.3104 73.927 26.4649ZM68.1205 29.1713C68.2703 29.0504 68.3453 28.871 68.3453 28.6333C68.3453 28.4003 68.2724 28.2298 68.1272 28.1224C67.9818 28.0149 67.7591 27.9586 67.4595 27.9542L66.6139 27.9408V29.3393L67.4595 29.3462C67.7503 29.3506 67.9705 29.2923 68.1205 29.1713ZM68.6472 27.7861C68.8843 27.9878 69.0029 28.2725 69.0029 28.6401C69.0029 29.0256 68.8741 29.3225 68.617 29.5312C68.3597 29.7394 67.9916 29.8414 67.5131 29.837L65.9697 29.83V26.2667H66.6139V27.4702L67.6139 27.4769C68.0656 27.4815 68.41 27.5843 68.6472 27.7861ZM64.7244 26.2667V29.83H64.1407V27.2281L62.812 29.4266H62.53L61.2149 27.2214V29.83H60.6241V26.2667H61.2884L62.6842 28.6739L64.1203 26.2667H64.7244ZM58.4071 29.1476C58.5883 29.0424 58.7301 28.8944 58.8332 28.7039C58.9361 28.5135 58.9876 28.2949 58.9876 28.0485C58.9876 27.8019 58.9361 27.5834 58.8332 27.3929C58.7301 27.2025 58.5883 27.0558 58.4071 26.9523C58.2258 26.8495 58.0214 26.7978 57.7932 26.7978C57.5648 26.7978 57.3601 26.8495 57.1791 26.9523C56.9979 27.0558 56.8546 27.2025 56.7494 27.3929C56.6443 27.5834 56.5919 27.8019 56.5919 28.0485C56.5919 28.2949 56.6443 28.5135 56.7494 28.7039C56.8546 28.8944 56.9979 29.0424 57.1791 29.1476C57.3601 29.253 57.5648 29.3057 57.7932 29.3057C58.0214 29.3057 58.2258 29.253 58.4071 29.1476ZM56.8401 29.6353C56.5584 29.4784 56.3377 29.262 56.1791 28.9864C56.0203 28.7106 55.9409 28.398 55.9409 28.0485C55.9409 27.6988 56.0203 27.3862 56.1791 27.1104C56.3377 26.8348 56.5584 26.6196 56.8401 26.4649C57.1221 26.3104 57.4396 26.2331 57.7932 26.2331C58.1464 26.2331 58.463 26.3104 58.7427 26.4649C59.0222 26.6196 59.2413 26.8348 59.4003 27.1104C59.5589 27.3862 59.6383 27.6988 59.6383 28.0485C59.6383 28.398 59.5589 28.7106 59.4003 28.9864C59.2413 29.262 59.0222 29.4784 58.7427 29.6353C58.463 29.7922 58.1464 29.8706 57.7932 29.8706C57.4396 29.8706 57.1221 29.7922 56.8401 29.6353ZM53.4172 27.7592H52.4373V29.83H51.7799V25.1235H52.4373V27.1677H53.4306L54.9068 25.1235H55.625L53.9473 27.403L55.7055 29.83H54.9403L53.4172 27.7592ZM148.067 14.5245C148.689 15.1275 149 16.0212 149 17.2062V21.8954H147.088V17.4513C147.088 16.7365 146.92 16.1976 146.583 15.8347C146.247 15.4723 145.768 15.2906 145.146 15.2906C144.442 15.2906 143.886 15.5028 143.479 15.9265C143.071 16.3506 142.867 16.961 142.867 17.758V21.8954H140.955V10.5249H142.867V14.6625C143.183 14.3253 143.573 14.0674 144.037 13.8884C144.501 13.7101 145.018 13.6203 145.589 13.6203C146.619 13.6203 147.445 13.9218 148.067 14.5245ZM133.928 21.4665C133.255 21.1088 132.729 20.6108 132.352 19.9721C131.975 19.3338 131.786 18.611 131.786 17.8039C131.786 16.9971 131.975 16.2767 132.352 15.6432C132.729 15.0098 133.252 14.5145 133.92 14.1566C134.588 13.7992 135.35 13.6203 136.206 13.6203C137.012 13.6203 137.718 13.7839 138.325 14.1107C138.931 14.4378 139.388 14.9077 139.694 15.5207L138.225 16.3788C137.991 16.0008 137.697 15.7174 137.346 15.5282C136.994 15.3394 136.609 15.2447 136.191 15.2447C135.478 15.2447 134.886 15.4772 134.417 15.9421C133.948 16.4071 133.714 17.0276 133.714 17.8039C133.714 18.5805 133.945 19.2009 134.409 19.6657C134.873 20.1307 135.467 20.3631 136.191 20.3631C136.609 20.3631 136.994 20.2686 137.346 20.0794C137.697 19.8906 137.991 19.6071 138.225 19.2291L139.694 20.0872C139.377 20.7001 138.916 21.1728 138.309 21.5045C137.703 21.8366 137.002 22.0026 136.206 22.0026C135.36 22.0026 134.601 21.8239 133.928 21.4665ZM131.272 13.6203V15.444C131.109 15.4132 130.962 15.3981 130.829 15.3981C130.085 15.3981 129.504 15.6151 129.086 16.0491C128.667 16.4837 128.459 17.1094 128.459 17.9265V21.8954H126.547V13.7123H128.367V14.9077C128.917 14.0496 129.886 13.6203 131.272 13.6203ZM121.878 20.2787C122.25 20.0591 122.512 19.7448 122.665 19.3362V18.3861H120.692C119.591 18.3861 119.041 18.749 119.041 19.4743C119.041 19.8215 119.178 20.0974 119.453 20.3016C119.729 20.5062 120.111 20.6083 120.601 20.6083C121.079 20.6083 121.505 20.4984 121.878 20.2787ZM123.621 14.4862C124.258 15.0635 124.577 15.9343 124.577 17.0989V21.8954H122.772V20.8994C122.537 21.257 122.204 21.5303 121.77 21.7192C121.337 21.9079 120.814 22.0026 120.203 22.0026C119.591 22.0026 119.056 21.8977 118.597 21.6886C118.138 21.4791 117.784 21.188 117.534 20.8149C117.284 20.4423 117.159 20.0208 117.159 19.5509C117.159 18.8154 117.432 18.2254 117.978 17.781C118.523 17.3365 119.382 17.1143 120.554 17.1143H122.665V16.9917C122.665 16.4198 122.494 15.9802 122.153 15.6737C121.811 15.3673 121.304 15.214 120.631 15.214C120.172 15.214 119.721 15.2857 119.277 15.4286C118.834 15.5719 118.459 15.7711 118.153 16.0262L117.404 14.6318C117.832 14.305 118.347 14.0547 118.949 13.8808C119.55 13.7072 120.187 13.6203 120.86 13.6203C122.063 13.6203 122.984 13.9091 123.621 14.4862ZM110.641 15.6969C110.218 16.0596 109.96 16.5424 109.869 17.1451H114.503C114.421 16.5526 114.171 16.0721 113.753 15.7043C113.335 15.3366 112.815 15.1529 112.193 15.1529C111.582 15.1529 111.064 15.3343 110.641 15.6969ZM116.292 18.4169H109.884C109.996 19.0197 110.289 19.4972 110.764 19.8496C111.237 20.202 111.826 20.3783 112.53 20.3783C113.427 20.3783 114.166 20.082 114.747 19.4894L115.772 20.6694C115.405 21.1088 114.941 21.4408 114.38 21.6655C113.82 21.8903 113.188 22.0026 112.484 22.0026C111.586 22.0026 110.796 21.8239 110.113 21.4665C109.43 21.1088 108.902 20.6108 108.53 19.9721C108.158 19.3338 107.972 18.611 107.972 17.8039C107.972 17.0069 108.153 16.2894 108.515 15.6508C108.877 15.0124 109.379 14.5145 110.022 14.1566C110.664 13.7992 111.388 13.6203 112.193 13.6203C112.989 13.6203 113.7 13.7966 114.327 14.1492C114.954 14.5014 115.444 14.9971 115.795 15.6355C116.147 16.2742 116.323 17.0122 116.323 17.8498C116.323 17.9827 116.313 18.1717 116.292 18.4169ZM100.351 21.696C99.5812 21.4613 98.972 21.1499 98.5237 20.7614L99.2117 19.2137C99.6502 19.5612 100.188 19.8445 100.825 20.0642C101.462 20.284 102.102 20.3936 102.745 20.3936C103.54 20.3936 104.134 20.266 104.526 20.0105C104.919 19.7553 105.115 19.4181 105.115 18.9991C105.115 18.6928 105.006 18.4398 104.786 18.2406C104.567 18.0413 104.289 17.8857 103.953 17.7732C103.616 17.6608 103.158 17.5333 102.577 17.3902C101.761 17.1963 101.101 17.002 100.596 16.8078C100.091 16.6139 99.6577 16.3099 99.2959 15.896C98.9339 15.4823 98.7531 14.9229 98.7531 14.2181C98.7531 13.6256 98.9135 13.0867 99.2347 12.6015C99.5559 12.1162 100.04 11.7306 100.688 11.4445C101.335 11.1584 102.128 11.0152 103.066 11.0152C103.718 11.0152 104.361 11.0972 104.993 11.2604C105.625 11.424 106.171 11.6589 106.629 11.9653L106.002 13.5131C105.533 13.2374 105.044 13.028 104.534 12.8848C104.024 12.7419 103.53 12.6704 103.05 12.6704C102.265 12.6704 101.682 12.8032 101.299 13.0689C100.917 13.3345 100.726 13.6869 100.726 14.126C100.726 14.4325 100.835 14.683 101.055 14.877C101.274 15.0713 101.552 15.2244 101.888 15.3366C102.225 15.4493 102.683 15.5768 103.265 15.7199C104.06 15.9036 104.712 16.0952 105.222 16.2943C105.732 16.4936 106.168 16.7978 106.53 17.2062C106.892 17.6149 107.073 18.1665 107.073 18.8613C107.073 19.4537 106.912 19.99 106.591 20.4701C106.27 20.9507 105.783 21.3336 105.13 21.6195C104.478 21.9055 103.683 22.0486 102.745 22.0486C101.919 22.0486 101.121 21.9308 100.351 21.696ZM97.7939 13.6203V15.444C97.6309 15.4132 97.483 15.3981 97.3504 15.3981C96.606 15.3981 96.0251 15.6151 95.6071 16.0491C95.1889 16.4837 94.98 17.1094 94.98 17.9265V21.8954H93.0683V13.7123H94.8881V14.9077C95.4386 14.0496 96.4072 13.6203 97.7939 13.6203ZM89.0003 19.6579C89.4589 19.1882 89.6883 18.5702 89.6883 17.8039C89.6883 17.0376 89.4589 16.4198 89.0003 15.9495C88.5412 15.4798 87.96 15.2447 87.2567 15.2447C86.553 15.2447 85.9741 15.4798 85.5207 15.9495C85.0669 16.4198 84.8401 17.0376 84.8401 17.8039C84.8401 18.5702 85.0669 19.1882 85.5207 19.6579C85.9741 20.1282 86.553 20.3631 87.2567 20.3631C87.96 20.3631 88.5412 20.1282 89.0003 19.6579ZM85.0236 21.4665C84.3607 21.1088 83.8434 20.6108 83.4713 19.9721C83.099 19.3338 82.913 18.611 82.913 17.8039C82.913 16.9971 83.099 16.2767 83.4713 15.6432C83.8434 15.0098 84.3607 14.5145 85.0236 14.1566C85.6863 13.7992 86.4306 13.6203 87.2567 13.6203C88.0927 13.6203 88.8419 13.7992 89.5048 14.1566C90.1674 14.5145 90.6849 15.0098 91.0572 15.6432C91.4293 16.2767 91.6153 16.9971 91.6153 17.8039C91.6153 18.611 91.4293 19.3338 91.0572 19.9721C90.6849 20.6108 90.1674 21.1088 89.5048 21.4665C88.8419 21.8239 88.0927 22.0026 87.2567 22.0026C86.4306 22.0026 85.6863 21.8239 85.0236 21.4665ZM80.5946 14.5245C81.2162 15.1275 81.5275 16.0212 81.5275 17.2062V21.8954H79.6158V17.4513C79.6158 16.7365 79.4475 16.1976 79.1111 15.8347C78.7746 15.4723 78.2952 15.2906 77.6732 15.2906C76.9699 15.2906 76.4141 15.5028 76.0061 15.9265C75.5984 16.3506 75.3944 16.961 75.3944 17.758V21.8954H73.4826V13.7123H75.3028V14.7697C75.6188 14.3919 76.0164 14.1057 76.4958 13.9114C76.9747 13.7175 77.515 13.6203 78.1169 13.6203C79.1467 13.6203 79.9726 13.9218 80.5946 14.5245ZM69.4146 19.6579C69.8736 19.1882 70.1031 18.5702 70.1031 17.8039C70.1031 17.0376 69.8736 16.4198 69.4146 15.9495C68.956 15.4798 68.3748 15.2447 67.6711 15.2447C66.9678 15.2447 66.3889 15.4798 65.9353 15.9495C65.4815 16.4198 65.2548 17.0376 65.2548 17.8039C65.2548 18.5702 65.4815 19.1882 65.9353 19.6579C66.3889 20.1282 66.9678 20.3631 67.6711 20.3631C68.3748 20.3631 68.956 20.1282 69.4146 19.6579ZM65.4384 21.4665C64.7755 21.1088 64.258 20.6108 63.8859 19.9721C63.5136 19.3338 63.3278 18.611 63.3278 17.8039C63.3278 16.9971 63.5136 16.2767 63.8859 15.6432C64.258 15.0098 64.7755 14.5145 65.4384 14.1566C66.1008 13.7992 66.8454 13.6203 67.6711 13.6203C68.507 13.6203 69.2564 13.7992 69.9195 14.1566C70.5822 14.5145 71.0995 15.0098 71.4718 15.6432C71.8438 16.2767 72.0301 16.9971 72.0301 17.8039C72.0301 18.611 71.8438 19.3338 71.4718 19.9721C71.0995 20.6108 70.5822 21.1088 69.9195 21.4665C69.2564 21.8239 68.507 22.0026 67.6711 22.0026C66.8454 22.0026 66.1008 21.8239 65.4384 21.4665ZM56.3675 20.2098C57.1525 20.2098 57.8435 20.0591 58.4399 19.7576C59.0362 19.4566 59.4952 19.0274 59.8164 18.4706C60.1374 17.9138 60.2981 17.2676 60.2981 16.5321C60.2981 15.7963 60.1374 15.1504 59.8164 14.5934C59.4952 14.0369 59.0362 13.6076 58.4399 13.3063C57.8435 13.0049 57.1525 12.8542 56.3675 12.8542H53.7675V20.2098H56.3675ZM51.7793 11.1685H56.4593C57.6011 11.1685 58.6157 11.3908 59.5028 11.8352C60.3898 12.2796 61.0781 12.9077 61.5675 13.7199C62.0569 14.5321 62.3016 15.4696 62.3016 16.5321C62.3016 17.5946 62.0569 18.5317 61.5675 19.3439C61.0781 20.1561 60.3898 20.7844 59.5028 21.2289C58.6157 21.6731 57.6011 21.8954 56.4593 21.8954H51.7793V11.1685ZM16.5518 13.0719C16.5518 10.5514 17.173 8.17339 18.2697 6.08365C18.417 5.8032 18.3607 5.45956 18.1322 5.2402C16.5474 3.71913 14.9376 2.13613 13.5241 0.300394C13.3834 0.119444 13.2455 -0.000209808 13.0451 -0.000209808C12.8447 -0.000209808 12.7068 0.119444 12.5661 0.300394C7.53026 6.84125 0 10.1724 0 18.9279C0 26.1469 5.84037 32 13.0451 32C17.121 32 20.7597 30.1265 23.1519 27.1922C23.3815 26.9105 23.3551 26.4978 23.0966 26.2423C19.6629 22.8494 16.5518 19.0765 16.5518 13.0719ZM18.5417 13.0719C18.5417 5.85295 24.3819 -0.000209808 31.5869 -0.000209808C38.7917 -0.000209808 44.6319 5.85295 44.6319 13.0719C44.6319 21.8276 37.1016 25.1585 32.0658 31.6996C31.925 31.8804 31.7872 32 31.5869 32C31.3864 32 31.2485 31.8804 31.1077 31.6996C26.072 25.1585 18.5417 21.8276 18.5417 13.0719Z" fill="#EE262C"/>
</svg>
